HIERARCHY
ROOT Hips
{
	OFFSET 0.000000 0.000000 0.000000 
	CHANNELS 6 Xposition Yposition Zposition Yrotation Zrotation Xrotation 
	JOINT Lumbar
	{
		OFFSET 0.000000 0.000000 0.000000 
		CHANNELS 3 Zrotation Xrotation Yrotation
		JOINT Neck
		{
			OFFSET 0.000000 0.445665 0.000000 
			CHANNELS 3 Zrotation Xrotation Yrotation
			End Site
			{
				OFFSET 0.000000 0.227535 0.000000 
			}
		}
		JOINT RightShoulder
		{
			OFFSET 0.019635 0.377685 0.194865 
			CHANNELS 3 Zrotation Xrotation Yrotation
			JOINT RightElbow
			{
				OFFSET 0.000000 -0.243375 0.000000 
				CHANNELS 2 Zrotation Yrotation
				JOINT RightWrist
				{
					OFFSET 0.000000 -0.264825 0.000000 
					CHANNELS 2 Zrotation Xrotation
					End Site
					{
						OFFSET 0.006600 -0.176220 0.000990 
					}
				}
			}
		}
		JOINT LeftShoulder
		{
			OFFSET 0.019635 0.377685 -0.194865 
			CHANNELS 3 Zrotation Xrotation Yrotation
			JOINT LeftElbow
			{
				OFFSET 0.000000 -0.243375 0.000000 
				CHANNELS 2 Zrotation Yrotation
				JOINT LeftWrist
				{
					OFFSET 0.000000 -0.264825 0.000000 
					CHANNELS 2 Zrotation Xrotation
					End Site
					{
						OFFSET 0.006600 -0.176220 -0.000990 
					}
				}
			}
		}
	}
	JOINT RightHip
	{
		OFFSET 0.052140 -0.069960 0.075570 
		CHANNELS 3 Zrotation Xrotation Yrotation
		JOINT RightKnee
		{
			OFFSET 0.000000 -0.402270 0.000000 
			CHANNELS 1 Zrotation
			JOINT RightAnkle
			{
				OFFSET 0.000000 -0.404085 0.000000 
				CHANNELS 3 Zrotation Xrotation Yrotation
				End Site
				{
					OFFSET 0.204105 -0.089430 0.008415 
				}
			}
		}
	}
	JOINT LeftHip
	{
		OFFSET 0.052140 -0.069960 -0.075570 
		CHANNELS 3 Zrotation Xrotation Yrotation
		JOINT LeftKnee
		{
			OFFSET 0.000000 -0.402270 0.000000 
			CHANNELS 1 Zrotation
			JOINT LeftAnkle
			{
				OFFSET 0.000000 -0.404085 0.000000 
				CHANNELS 3 Zrotation Xrotation Yrotation
				End Site
				{
					OFFSET 0.204105 -0.089430 -0.008415 
				}
			}
		}
	}
}
MOTION
Frames: 22
Frame Time: 0.02
-0.00301 -0.00035 0.0008 -181.18047 -34.27804 -3.37215 47.14918 2.76073 -5.38116 -5.54708 -1.93664 -0.3636 -21.80942 -11.2601 5.44942 36.46307 90.20303 5.89734 -0.16844 -24.14141 12.31734 -6.22076 41.47995 -97.60382 13.29578 0.10067 35.43881 -0.48908 -6.71076 -21.01285 -8.29199 -4.46223 -3.07246 38.65241 7.36234 1.78103 -27.22888 -9.61697 5.48442 3.73872
-0.00194 -0.00022 0.0005 -181.09954 -34.03757 -3.35058 46.75757 2.7506 -5.46142 -5.63928 -1.98383 -0.37796 -21.67386 -11.34773 5.49693 36.59814 90.16691 5.96493 -0.17352 -24.09571 12.38289 -6.29633 41.33569 -97.52789 13.3195 0.09102 35.2064 -0.46918 -6.69404 -20.9548 -8.30828 -4.46987 -3.07899 38.41733 7.50828 2.38944 -27.17414 -9.55162 5.42968 3.70491
-0.00087 -9e-05 0.0002 -181.01889 -33.79807 -3.32902 46.36691 2.74053 -5.54156 -5.73158 -2.03102 -0.39228 -21.53855 -11.43546 5.54492 36.73318 90.13109 6.03241 -0.1786 -24.04983 12.44845 -6.37196 41.19147 -97.45234 13.34325 0.08144 34.97524 -0.44937 -6.67743 -20.89703 -8.32454 -4.47748 -3.08549 38.18346 7.65368 2.99582 -27.1196 -9.4865 5.37513 3.67121
0.00021 4e-05 -0.0001 -180.93821 -33.55838 -3.30751 45.97649 2.73043 -5.62159 -5.82352 -2.07809 -0.4066 -21.40339 -11.52288 5.59239 36.86791 90.09512 6.09981 -0.18366 -24.00424 12.51383 -6.44733 41.04759 -97.37668 13.36692 0.07183 34.74362 -0.42953 -6.66075 -20.83917 -8.34078 -4.4851 -3.092 37.94919 7.79916 3.60234 -27.06504 -9.42134 5.32057 3.63751
0.00128 0.00016 -0.0004 -180.85725 -33.31759 -3.286 45.58513 2.72025 -5.7017 -5.91531 -2.12508 -0.42096 -21.26803 -11.61008 5.63916 37.0025 90.05875 6.16729 -0.18871 -23.95892 12.57916 -6.52254 40.90381 -97.30058 13.39051 0.0621 34.51054 -0.40957 -6.644 -20.78098 -8.35705 -4.49274 -3.09852 37.71351 7.94517 4.21092 -27.01022 -9.35595 5.26582 3.60369
0.00236 0.00029 -0.00069 -180.77724 -33.08083 -3.26435 45.19594 2.71043 -5.78191 -6.00874 -2.17268 -0.43519 -21.13279 -11.69891 5.68971 37.13846 90.02407 6.23477 -0.19385 -23.91182 12.64521 -6.59908 40.75867 -97.22617 13.41458 0.05284 34.28343 -0.3901 -6.62769 -20.72413 -8.3733 -4.50029 -3.10499 37.48346 8.08929 4.81266 -26.95627 -9.2914 5.2117 3.57025
0.00341 0.00042 -0.00099 -180.69541 -32.83629 -3.24301 44.803 2.6999 -5.86181 -6.09849 -2.21904 -0.44966 -20.99754 -11.78434 5.73258 37.27156 89.98609 6.30214 -0.1988 -23.86847 12.70968 -6.67281 40.61647 -97.1485 13.43768 0.04267 34.04459 -0.36964 -6.61038 -20.66464 -8.38957 -4.50801 -3.11156 37.24237 8.23709 5.4275 -26.90068 -9.22522 5.15636 3.53608
0.0045 0.00055 -0.00129 -180.61527 -32.59879 -3.22135 44.4132 2.69003 -5.94202 -6.19215 -2.26645 -0.46392 -20.86215 -11.87296 5.78258 37.40724 89.95107 6.3697 -0.20395 -23.82146 12.77568 -6.7492 40.47146 -97.07372 13.46166 0.03333 33.81651 -0.35016 -6.59425 -20.60756 -8.4058 -4.51557 -3.11802 37.01139 8.38145 6.03026 -26.84655 -9.16056 5.10215 3.50259
0.0056 0.00068 -0.00159 -180.53709 -32.37037 -3.19945 44.0283 2.68095 -6.02257 -6.28863 -2.31559 -0.4779 -20.72711 -11.96533 5.84122 37.54642 89.92 6.43716 -0.20924 -23.77072 12.84334 -6.82864 40.32327 -97.00293 13.48681 0.02503 33.60178 -0.33162 -6.57856 -20.55353 -8.42208 -4.52298 -3.12444 36.79305 8.5218 6.61847 -26.7944 -9.09768 5.0493 3.4699
0.00655 0.0008 -0.00189 -180.44731 -32.09113 -3.17937 43.61835 2.66725 -6.10105 -6.36303 -2.35613 -0.49341 -20.59161 -12.03572 5.84995 37.66653 89.86721 6.50424 -0.21342 -23.74364 12.90081 -6.88996 40.19413 -96.91056 13.50551 0.01083 33.31088 -0.30687 -6.55731 -20.48226 -8.43835 -4.53139 -3.13137 36.50283 8.68583 7.29107 -26.73144 -9.0243 4.98855 3.43252
0.00784 0.00094 -0.00219 -180.38223 -31.91822 -3.15517 43.25932 2.66333 -6.18395 -6.48771 -2.41393 -0.50574 -20.4561 -12.15269 5.96402 37.82612 89.85956 6.57269 -0.22012 -23.66528 12.98017 -6.98985 40.02441 -96.86281 13.53763 0.00901 33.18023 -0.29575 -6.54971 -20.44718 -8.45447 -4.53757 -3.13706 36.3637 8.79953 7.78515 -26.69089 -8.97324 4.94451 3.4051
0.00999 0.00115 -0.00249 -180.38387 -32.04817 -3.12174 43.05685 2.68629 -6.2787 -6.72207 -2.52681 -0.50897 -20.32795 -12.39713 6.36941 38.10107 89.98208 6.64011 -0.23255 -23.4555 13.11701 -7.19367 39.74572 -96.94583 13.60856 0.04215 33.49882 -0.31783 -6.5633 -20.5141 -8.47181 -4.53879 -3.14053 36.64932 8.77675 7.78872 -26.71595 -8.98264 4.94646 3.40483
0.01248 0.00138 -0.0028 -180.41061 -32.2834 -3.08375 42.90233 2.71912 -6.37779 -7.01248 -2.65558 -0.50908 -20.1981 -12.68828 6.87975 38.41416 90.1483 6.70973 -0.24779 -23.19223 13.27636 -7.43641 39.42625 -97.07187 13.69258 0.08758 33.97747 -0.35425 -6.59286 -20.61704 -8.48875 -4.53761 -3.14257 37.0856 8.70312 7.61324 -26.76283 -9.01462 4.96516 3.41461
0.01485 0.00161 -0.00311 -180.42639 -32.46252 -3.04653 42.71494 2.74732 -6.47533 -7.2954 -2.77205 -0.51088 -20.06457 -12.95848 7.34116 38.70547 90.29096 6.78156 -0.26247 -22.9477 13.42704 -7.66281 39.12335 -97.17305 13.76937 0.12667 34.37554 -0.38699 -6.62673 -20.70149 -8.50472 -4.53673 -3.14445 37.44533 8.65166 7.51999 -26.79692 -9.03675 4.97608 3.41993
0.01708 0.00183 -0.0034 -180.43986 -32.6745 -3.01493 42.5746 2.77589 -6.57178 -7.50137 -2.91002 -0.51153 -19.9511 -13.2282 7.80975 39.01646 90.45118 6.84011 -0.27391 -22.72765 13.57098 -7.88433 38.82696 -97.29769 13.8517 0.16879 34.80334 -0.40826 -6.61496 -20.7942 -8.5253 -4.53898 -3.1496 37.83621 8.60403 7.42237 -26.84286 -9.05709 4.98772 3.42484
0.0197 0.00206 -0.00374 -180.46469 -32.84581 -2.97036 42.34738 2.80633 -6.67065 -7.88231 -3.00693 -0.51384 -19.79387 -13.50926 8.28607 39.29445 90.58285 6.92648 -0.29304 -22.4426 13.73454 -8.12436 38.50948 -97.38248 13.92548 0.20775 35.21181 -0.45621 -6.69807 -20.87922 -8.53654 -4.53437 -3.1478 38.20201 8.53642 7.29187 -26.86968 -9.08665 5.00187 3.43298
0.02322 0.0023 -0.00422 -180.50913 -32.85446 -2.89259 41.86905 2.83709 -6.7829 -8.72009 -2.98678 -0.52149 -19.52938 -13.81618 8.77616 39.48133 90.64527 7.09259 -0.32931 -22.00202 13.94526 -8.41441 38.12665 -97.35887 13.97379 0.23233 35.48773 -0.57978 -7.07478 -20.92597 -8.51884 -4.50948 -3.12513 38.42683 8.42579 7.10991 -26.8351 -9.13506 5.01853 3.4476
0.02716 0.00255 -0.00475 -180.56495 -32.82315 -2.80163 41.3005 2.86986 -6.89609 -9.73401 -2.92466 -0.53091 -19.21832 -14.13169 9.26679 39.6323 90.67403 7.28618 -0.37318 -21.49553 14.17562 -8.72089 37.72789 -97.29292 14.013 0.25355 35.74641 -0.72885 -7.54082 -20.96539 -8.49234 -4.47804 -3.09584 38.62811 8.29678 6.90115 -26.78128 -9.19231 5.03721 3.46516
0.03098 0.0028 -0.00526 -180.61955 -32.82617 -2.71571 40.77419 2.90326 -7.00364 -10.67601 -2.88171 -0.53953 -18.92013 -14.43945 9.74558 39.79307 90.70436 7.46464 -0.41666 -21.01252 14.39748 -9.0134 37.34678 -97.23645 14.05522 0.27831 36.03876 -0.86242 -7.94133 -21.0134 -8.47204 -4.45096 -3.07097 38.86243 8.17655 6.70866 -26.7382 -9.24605 5.05515 3.48134
0.0345 0.00304 -0.00572 -180.65929 -32.76442 -2.63369 40.24851 2.93042 -7.13295 -11.58715 -2.83916 -0.54806 -18.65742 -14.76544 10.2779 39.98113 90.7925 7.65345 -0.45007 -20.55631 14.61674 -9.33175 36.9175 -97.21649 14.10178 0.29596 36.22632 -1.01227 -8.4434 -21.03995 -8.44257 -4.41828 -3.04031 39.00592 8.05319 6.49588 -26.68682 -9.29789 5.07284 3.49793
0.03875 0.00329 -0.00632 -180.73116 -32.82695 -2.54043 39.6942 2.97103 -7.21762 -12.60178 -2.7853 -0.55722 -18.30912 -15.05442 10.69633 40.10529 90.75378 7.82831 -0.50272 -20.02763 14.84777 -9.6034 36.58879 -97.11766 14.13807 0.32627 36.62757 -1.13498 -8.76029 -21.10964 -8.42995 -4.39534 -3.01987 39.33327 7.93206 6.31725 -26.64866 -9.35617 5.09143 3.51436
0.0447 0.00356 -0.00727 -180.8999 -33.23982 -2.42046 39.12621 3.04784 -7.17407 -13.87519 -2.71414 -0.56796 -17.74066 -15.24335 10.81163 40.04431 90.35375 7.94541 -0.63971 -19.32896 15.09021 -9.712 36.51174 -96.73947 14.13388 0.4038 37.60872 -1.16843 -8.49849 -21.29472 -8.46745 -4.4043 -3.03176 40.15477 7.82852 6.27878 -26.64587 -9.42424 5.11071 3.52845
